<?xml version="1.0" standalone="no"?>
<!DOCTYPE svg PUBLIC "-//W3C//DTD SVG 1.1//EN" "http://www.w3.org/Graphics/SVG/1.1/DTD/svg11.dtd" >
<svg xmlns="http://www.w3.org/2000/svg">
<metadata>Generated by IcoMoon</metadata>
<defs>
<font id="icomoon" horiz-adv-x="1024">
<font-face units-per-em="1024" ascent="960" descent="-64" />
<missing-glyph horiz-adv-x="1024" />
<glyph unicode="&#x20;" horiz-adv-x="512" d="" />
<glyph unicode="&#xe900;" glyph-name="audiomack" d="M887.642 704c0 15.975-11.785 29.503-27.605 31.697-15.825 2.194-30.844-7.618-35.191-22.99l-94.033-332.585v171.345c0 14.689-10.001 27.491-24.252 31.048-14.255 3.556-29.094-3.047-35.998-16.014l-114.487-215.116-48.759 128.252c-4.54 11.942-15.748 20.041-28.514 20.599-12.762 0.559-24.636-6.532-30.199-18.031l-41.468-85.705-10.519 27.669c-3.801 10.001-12.349 17.438-22.778 19.823s-21.36-0.597-29.13-7.953l-31.912-30.199-39.002 26.091c-14.689 9.826-34.563 5.884-44.39-8.806s-5.885-34.564 8.804-44.39l60.235-40.294c12.42-8.307 28.937-6.916 39.789 3.354l15.613 14.775 19.848-52.207c4.54-11.942 15.75-20.041 28.514-20.599s24.64 6.532 30.203 18.031l41.468 85.705 47.42-124.736c4.459-11.733 15.369-19.776 27.9-20.565 12.527-0.789 24.363 5.82 30.259 16.9l87.356 164.134v-273.899c0-15.974 11.78-29.504 27.605-31.697 15.821-2.193 30.839 7.62 35.187 22.989l94.037 332.587v-157.478c0-10.291 4.945-19.951 13.295-25.967 8.35-6.012 19.081-7.646 28.843-4.386l83.025 27.733c16.764 5.602 25.813 23.727 20.215 40.491-5.602 16.764-23.727 25.813-40.491 20.215l-40.887-13.658v343.838zM128 437.333c-17.673 0-32-14.327-32-32s14.327-32 32-32h21.333c17.673 0 32 14.327 32 32s-14.327 32-32 32h-21.333z" />
<glyph unicode="&#xe901;" glyph-name="call" d="M820.48 308.907l-108.373 12.373c-26.027 2.987-51.627-5.973-69.973-24.32l-78.507-78.507c-120.747 61.44-219.733 160-281.173 281.173l78.933 78.933c18.347 18.347 27.307 43.947 24.32 69.973l-12.373 107.52c-5.12 43.093-41.387 75.52-84.907 75.52h-73.813c-48.213 0-88.32-40.107-85.333-88.32 22.613-364.373 314.027-655.36 677.973-677.973 48.213-2.987 88.32 37.12 88.32 85.333v73.813c0.427 43.093-32 79.36-75.093 84.48z" />
<glyph unicode="&#xe902;" glyph-name="amazon" d="M517.973 874.667c-112.085 0-236.587-41.941-262.784-179.029-2.816-14.592 7.381-22.101 17.024-24.235l113.835-11.605c10.709 0.555 19.243 10.539 21.291 21.077 9.813 47.232 49.792 70.571 94.677 70.571 24.235 0 51.627-9.088 65.963-30.549 16.555-23.979 13.824-56.491 13.824-84.267v-15.787c-68.309-7.595-157.397-12.245-221.269-40.021-73.813-31.573-125.525-95.957-125.525-190.635 0-121.131 77.44-182.187 176.597-182.187 83.755 0 128.981 20.096 193.621 85.291 21.376-30.635 28.971-45.739 68.096-77.952 8.789-4.651 19.883-3.755 27.648 3.157v-1.067c23.509 20.736 66.389 57.941 90.411 77.952 9.557 7.765 7.509 19.925 0 30.549-21.547 29.44-43.605 53.845-43.605 108.501v181.163c0 76.971 5.163 148.181-52.139 201.173-45.227 42.923-120.405 57.899-177.664 57.899zM549.888 527.104c10.624 0.683 21.248 0 31.915 0v-25.259c0-45.44 1.835-82.816-21.291-123.221-18.731-32.811-48.853-52.651-81.92-52.651-45.184 0-71.296 33.792-71.296 84.267 0 86.827 68.267 112.043 142.592 116.864zM875.392 255.36c-29.824-0.427-64.768-6.699-91.477-25.259-8.192-5.717-6.997-13.696 2.133-12.629 30.080 3.584 96.555 11.989 108.501-3.157s-13.227-77.44-24.448-105.301c-3.413-8.405 4.011-11.648 11.691-5.248 50.048 41.472 63.445 127.488 53.205 140.075-5.077 6.144-29.739 11.947-59.605 11.52zM91.349 239.573c-6.229-0.811-8.704-8.875-2.133-14.763 111.275-99.456 258.005-159.019 421.291-159.019 116.48 0 252.459 36.096 345.771 104.277 15.403 11.307 1.963 28.757-13.824 22.101-104.619-43.947-218.923-65.28-322.347-65.28-153.344 0-301.269 41.429-421.291 110.592-2.645 1.493-5.419 2.347-7.467 2.091z" />
<glyph unicode="&#xe903;" glyph-name="deezer" d="M798.72 673.28v-40.96h163.84v40.96zM430.080 611.84v-40.96h163.84v40.96zM798.72 611.84v-40.96h163.84v40.96zM430.080 550.4v-40.96h163.84v40.96zM798.72 550.4v-40.96h163.84v40.96zM61.44 488.96v-40.96h163.84v40.96zM430.080 488.96v-40.96h163.84v40.96zM614.4 488.96v-40.96h163.84v40.96zM798.72 488.96v-40.96h163.84v40.96zM61.44 427.52v-40.96h163.84v40.96zM430.080 427.52v-40.96h163.84v40.96zM614.4 427.52v-40.96h163.84v40.96zM798.72 427.52v-40.96h163.84v40.96zM61.44 366.080v-40.96h163.84v40.96zM245.76 366.080v-40.96h163.84v40.96zM430.080 366.080v-40.96h163.84v40.96zM614.4 366.080v-40.96h163.84v40.96zM798.72 366.080v-40.96h163.84v40.96zM61.44 304.64v-40.96h163.84v40.96zM245.76 304.64v-40.96h163.84v40.96zM430.080 304.64v-40.96h163.84v40.96zM614.4 304.64v-40.96h163.84v40.96zM798.72 304.64v-40.96h163.84v40.96zM61.44 243.2v-40.96h163.84v40.96zM245.76 243.2v-40.96h163.84v40.96zM430.080 243.2v-40.96h163.84v40.96zM614.4 243.2v-40.96h163.84v40.96zM798.72 243.2v-40.96h163.84v40.96z" />
<glyph unicode="&#xe904;" glyph-name="link" d="M810.667 64h-597.333c-46.933 0-85.333 38.4-85.333 85.333v597.333c0 46.933 38.4 85.333 85.333 85.333h298.667v-85.333h-298.667v-597.333h597.333v298.667h85.333v-298.667c0-46.933-38.4-85.333-85.333-85.333zM896 533.333h-85.333v213.333h-213.333v85.333h298.667zM353.175 349.507l470.642 470.658 60.341-60.339-470.642-470.658z" />
<glyph unicode="&#xe905;" glyph-name="facebook" d="M512 857.6c-226.202 0-409.6-183.398-409.6-409.6 0-205.346 151.279-374.921 348.365-404.548v296.004h-101.342v107.657h101.342v71.646c0 118.613 57.788 170.667 156.365 170.667 47.206 0 72.192-3.516 84.002-5.086v-93.969h-67.243c-41.847 0-56.457-39.697-56.457-84.412v-58.846h122.641l-16.623-107.657h-106.018v-296.858c199.919 27.102 354.167 198.042 354.167 405.402 0 226.202-183.398 409.6-409.6 409.6z" />
<glyph unicode="&#xe906;" glyph-name="instagram" d="M341.267 857.6c-131.721 0-238.867-107.245-238.867-239v-341.333c0-131.721 107.245-238.867 239-238.867h341.333c131.721 0 238.867 107.245 238.867 239v341.333c0 131.721-107.245 238.867-239 238.867h-341.333zM750.933 721.067c18.842 0 34.133-15.292 34.133-34.133s-15.292-34.133-34.133-34.133c-18.842 0-34.133 15.292-34.133 34.133s15.292 34.133 34.133 34.133zM512 652.8c112.947 0 204.8-91.853 204.8-204.8s-91.853-204.8-204.8-204.8c-112.947 0-204.8 91.853-204.8 204.8s91.853 204.8 204.8 204.8zM512 584.533c-75.405 0-136.533-61.128-136.533-136.533v0c0-75.405 61.128-136.533 136.533-136.533v0c75.405 0 136.533 61.128 136.533 136.533v0c0 75.405-61.128 136.533-136.533 136.533v0z" />
<glyph unicode="&#xe907;" glyph-name="tone" d="M738.187 799.812c-5.696 0-46.161-7.981-377.938-70.125-2.592 0-14.996-3.242-21.812-8.938-6.688-5.376-10.25-12.552-11.562-21-5.536-22.112 12.103-420.749-4.313-439.437-7.168-7.968-19.802-10.27-29.562-12.063-58.368-10.24-97.227-15.601-124.875-41.937-47.648-46.496-22.959-127.629 47.313-140.813 26.336-4.864 75.797 1.739 103.125 16.875 24.064 12.384 42.309 34.65 49.125 64.25 5.856 25.376 4.063 7.834 4.063 389.562 0 18.72 5.236 23.604 21.812 27.188 0 0 288.656 53.978 302 56.25 18.688 3.264 27.625-1.792 27.625-20 0-258.784 3.275-253.726-7.125-265.438-7.168-7.968-15.678-10.208-25.438-12-58.4-10.24-93.664-12.039-121.312-38.375-34.976-34.144-34.505-88.296 4.375-121 28.96-22.080 61.473-27.516 101.313-20.188 45.376 8.48 79.225 33.549 89.625 78.125 4.704 20.32 3.192-9.755 3 550.437 0 18.88-10.75 29.937-29.438 28.625z" />
<glyph unicode="&#xe908;" glyph-name="apple-music" d="M819.2 823.467h-614.4c-37.717 0-68.267-30.549-68.267-68.267v-614.4c0-37.717 30.549-68.267 68.267-68.267h614.4c37.717 0 68.267 30.549 68.267 68.267v614.4c0 37.717-30.583 68.267-68.267 68.267zM716.8 330.138c0-38.639-31.198-86.528-102.366-86.528-63.556 0-79.633 40.755-79.633 68.233 0 33.826 20.412 68.437 79.701 68.403 53.692 0 56.798 13.687 56.798 40.721v137.489l-250.231-40.789c0 0 0-203.605 0-226.372 0-38.639-31.198-82.261-102.366-82.261-63.556 0-79.633 40.755-79.633 68.233 0 33.826 20.412 68.437 79.701 68.437 53.692 0 56.798 13.687 56.798 40.721 0 75.435 0 232.243 0 232.243 0 11.264 8.329 20.173 19.046 22.016l296.55 46.046c0 0 1.98 0.171 2.901 0.171 12.561 0.034 22.733-10.138 22.733-22.699 0 0 0-311.33 0-334.063z" />
<glyph unicode="&#xe909;" glyph-name="napster" d="M512 939.52c-137.175 0-259.598-56.872-323.68-149.36-26.317 5.816-42.871 6-44.96 6h-40.96c-11.325 0-20.48-9.175-20.48-20.48v-143.92c-39.178-33.137-61.44-80.889-61.44-132.56 0-52.060 22.589-100.103 62.32-133.24 10.895-226.673 201.421-409.48 429.2-409.48s418.305 182.807 429.2 409.48c39.731 33.137 62.32 81.18 62.32 133.24 0 51.651-22.262 99.423-61.44 132.56v143.92c0 11.305-9.155 20.48-20.48 20.48h-40.96c-2.089 0-18.643-0.184-44.96-6-64.082 92.488-186.505 149.36-323.68 149.36zM512 837.12c97.751 0 185.117-36.786 232.16-96.28-14.664-8.131-30.501-17.84-47.52-29.8l-0.56-0.4c-41.226 21.75-103.614 44.56-184.080 44.56s-142.874-22.791-184.080-44.52l-0.56 0.4c-17.019 11.94-32.816 21.629-47.48 29.76 47.043 59.474 134.369 96.28 232.12 96.28zM839.68 672.24v-256.44l-0.76-44.92c-8.274-172.052-154.929-312-326.92-312s-318.646 139.948-326.92 312l-0.76 44.92v256.4c16.978-5.816 46.477-18.439 84.16-44.92l45.8-32.2c7.844-5.489 18.393-4.85 25.52 1.56 0.635 0.573 63.554 56.16 172.2 56.16 107.745 0 171.627-55.648 172.2-56.16 3.871-3.482 8.805-5.28 13.72-5.28 4.096 0 8.196 1.221 11.76 3.72l45.8 32.2c37.683 26.481 67.243 39.144 84.2 44.96zM276.48 407.040c-5.652 0-10.24-4.588-10.24-10.24 0-50.893 41.267-92.16 92.16-92.16h122.88c5.652 0 10.24 4.588 10.24 10.24 0 50.913-41.267 92.16-92.16 92.16h-122.88zM624.64 407.040c-50.893 0-92.16-41.267-92.16-92.16 0-5.652 4.588-10.24 10.24-10.24h122.88c50.893 0 92.16 41.267 92.16 92.16 0 5.652-4.588 10.24-10.24 10.24h-122.88zM419.24 263.68c-8.827 0-13.078-12.035-6.32-18.24 14.234-13.066 86.28-43.2 99.080-43.2s84.826 30.134 99.080 43.2c6.738 6.205 2.547 18.24-6.28 18.24h-185.56zM429.36 181.88c-11.109-0.262-20.014-9.329-20.014-20.477 0-8.072 4.669-15.053 11.453-18.39l0.12-0.053c0 0 43.293-22.64 91.080-22.64s91.080 22.64 91.080 22.64c6.768 3.437 11.325 10.347 11.325 18.322 0 11.312-9.17 20.482-20.482 20.482-3.34 0-6.494-0.8-9.279-2.218l0.116 0.054c0 0-38.627-18.32-72.76-18.32s-72.76 18.32-72.76 18.32c-2.731 1.44-5.968 2.286-9.402 2.286-0.168 0-0.336-0.002-0.503-0.006h0.025z" />
<glyph unicode="&#xe90a;" glyph-name="pandora" d="M778.097 745.124c-56.607 59.31-132.936 91.996-214.897 91.996h-358.4c-11.305 0-20.48-9.155-20.48-20.48v-737.28c0-11.325 9.175-20.48 20.48-20.48h163.84c33.874 0 61.44 27.566 61.44 61.44v122.88h125.317c163.246 0 296.96 124.15 304.435 282.644 3.85 82.104-25.17 159.969-81.736 219.279z" />
<glyph unicode="&#xe90b;" glyph-name="patreon" d="M128 832c-23.552 0-42.667-19.115-42.667-42.667v-682.667c0-23.552 19.115-42.667 42.667-42.667h85.333c23.552 0 42.667 19.115 42.667 42.667v682.667c0 23.552-19.115 42.667-42.667 42.667h-85.333zM640 832c-164.651 0-298.667-134.016-298.667-298.667s134.016-298.667 298.667-298.667c164.651 0 298.667 134.016 298.667 298.667s-134.016 298.667-298.667 298.667z" />
<glyph unicode="&#xe90c;" glyph-name="paypal" d="M184 960l-176-809.333h233.333l57.333 268h166.667c159.667 0 293.667 98 329.333 265.333 40.5 189.5-95.167 276-212 276zM382.667 794.667h113.333c57.167 0 95.333-49.167 78.667-110.667-14.333-61.5-73.667-110.667-133.333-110.667h-109.333zM894.667 728c-0.167-24.333-1.833-49.833-8-78.667-15.833-74.5-48.5-140.333-93.333-192-18.833-55.667-73.833-98.667-129.333-98.667h-2.667c-53.833-24.5-114.667-37.333-180-37.333h-104l-44-206.667-13.333-61.333h-64l-25.333-117.333h233.333l57.333 268h166.667c159.667 0 293.5 99.333 329.333 266.667 30 140.667-38.333 223.5-122.667 257.333z" />
<glyph unicode="&#xe90d;" glyph-name="shazam" d="M512 874.667c-235.264 0-426.667-191.381-426.667-426.667s191.403-426.667 426.667-426.667 426.667 191.403 426.667 426.667-191.403 426.667-426.667 426.667zM437.333 303.275c-39.104 0-78.208 14.869-107.968 44.651-59.541 59.52-59.541 156.395 0 215.915l128 128c12.501 12.501 32.747 12.501 45.248 0s12.501-32.747 0-45.248l-128-128c-34.581-34.581-34.581-90.837 0-125.419s90.837-34.581 125.419 0l64 64c12.501 12.501 32.747 12.501 45.248 0s12.501-32.747 0-45.248l-64-64c-29.739-29.76-68.843-44.651-107.947-44.651zM694.635 326.592l-128-128c-6.251-6.251-14.443-9.365-22.635-9.365s-16.384 3.115-22.635 9.365c-12.501 12.501-12.501 32.747 0 45.248l128 128c34.581 34.581 34.581 90.837 0 125.419s-90.837 34.581-125.419 0l-64-64c-12.501-12.501-32.747-12.501-45.248 0s-12.501 32.747 0 45.248l64 64c59.52 59.541 156.395 59.541 215.915 0 59.541-59.52 59.541-156.395 0.021-215.915z" />
<glyph unicode="&#xe90e;" glyph-name="snapchat" d="M512 874.667c-256 0-256-256-256-256v-42.667c0 0-0.981 0.043-2.688 0.043-14.507 0-82.645-2.987-82.645-59.563 0-65.92 72.405-68.48 83.84-68.48 0.981 0 1.493 0 1.493 0 0-42.667-70.485-92.629-116.736-104.192-43.093-16.725-53.376-45.269-53.931-66.901-0.341-12.928 2.816-23.381 4.523-27.435 16.085-37.76 63.872-57.259 110.677-57.259 1.621-61.397 45.909-85.547 75.563-85.547 33.877 0 69.717 16.555 69.717 16.555 1.749-1.451 56.32-59.221 166.187-59.221s164.437 57.771 166.229 59.221c0 0 35.797-16.555 69.717-16.555 29.653 0 73.899 24.149 75.52 85.547 46.805 0 94.592 19.499 110.677 57.259 1.707 4.053 4.864 14.507 4.523 27.435-0.555 21.632-10.837 50.176-53.931 66.901-46.251 11.563-116.736 61.525-116.736 104.192 0 0 0.512 0 1.493 0 11.435 0 83.84 2.56 83.84 68.48 0 56.576-68.139 59.563-82.645 59.563-1.707 0-2.688-0.043-2.688-0.043v42.667c0 0 0 256-256 256v0z" />
<glyph unicode="&#xe90f;" glyph-name="soundcloud" d="M628 653.733c-28.433 0-56.092-5.545-80.6-15-9.489-3.686-11.964-7.494-12.067-14.867v-399.733c0.102-7.714 6.024-13.682 13.533-14.467 0.307-0.034 349.133 0 349.133 0 69.564 0 125.933 55.77 125.933 125.333 0.034 69.598-56.303 126-125.867 126-17.237 0-33.749-3.485-48.733-9.8-10.001 113.493-105.246 202.533-221.333 202.533zM509.6 624.267c-3.311 0-6.378-1.22-8.733-3.2-3.072-2.526-5.065-6.333-5.133-10.6v-1.467l-5.667-282.333 2.867-52.133 2.8-50.8c0.102-7.509 6.356-13.733 13.933-13.733 7.465 0 13.692 6.117 13.867 13.667v0.133l6.133 102.867-6.133 283.733c-0.137 5.052-2.873 9.443-6.867 11.867-2.082 1.263-4.507 2-7.067 2zM466.6 599.8c-2.56 0-4.952-0.735-7-2.067-3.55-2.287-5.932-6.327-6-10.867v-2.467l-4.867-257.6c0-0.171 4.867-104.6 4.867-104.6 0-0.171 0-0.296 0-0.467 0.171-2.901 1.292-5.55 3.067-7.667 2.389-2.867 6.006-4.733 10-4.733 3.516 0 6.746 1.411 9.067 3.8 2.321 2.321 3.833 5.616 3.867 9.2l0.533 10.333 4.933 94.067-5.467 260.2c-0.102 4.403-2.387 8.346-5.8 10.667-2.082 1.4-4.572 2.2-7.2 2.2zM338 569.933c-5.666 0-10.229-4.565-10.4-10.333l-6.467-232.8 6.467-106.867c0.171-5.734 4.734-10.267 10.4-10.267 5.632 0 10.129 4.531 10.333 10.333l7.333 106.8-7.333 232.8c-0.205 5.803-4.701 10.333-10.333 10.333zM380.533 564.867c-6.178 0-11.096-4.919-11.267-11.2l-5.933-226.933 5.933-105.8c0.137-6.212 5.056-11.133 11.2-11.133 6.122 0 11.063 4.952 11.267 11.2l6.667 105.8-6.667 226.933c-0.137 6.246-5.056 11.133-11.2 11.133zM295.733 561.467c-5.154 0-9.296-4.109-9.467-9.4l-6.933-225.267 6.933-107.533c0.205-5.257 4.313-9.4 9.467-9.4 5.099 0 9.296 4.075 9.533 9.333v0.067l7.867 107.467-7.867 225.333c-0.205 5.291-4.413 9.4-9.533 9.4zM423.333 557.467c-6.656 0-11.964-5.342-12.067-12.067l-5.4-218.6 5.4-105.2c0.137-6.69 5.377-12 12.067-12 6.611 0 11.928 5.24 12.133 11.933v0.133l6.067 105.067-6.067 218.667c-0.102 6.758-5.477 12.067-12.133 12.067zM253.267 542.667c-4.642 0-8.462-3.755-8.667-8.533l-7.467-207.867 7.467-108.733c0.205-4.745 4.025-8.467 8.667-8.467 4.587 0 8.397 3.786 8.6 8.533l8.467 108.6-8.467 207.933c-0.205 4.813-3.992 8.533-8.6 8.533zM212.333 503.733c-4.13 0-7.529-3.332-7.733-7.667l-8-169.2 8-109.333c0.239-4.267 3.603-7.667 7.733-7.667 4.096 0 7.494 3.366 7.733 7.667l9.067 109.333-9.067 169.2c-0.239 4.267-3.637 7.667-7.733 7.667zM130.267 444.867c-3.174 0-5.761-2.487-6-5.867l-9-112.133 9-108.4c0.273-3.345 2.826-5.933 6-5.933 3.14 0 5.694 2.554 5.933 5.933l10.333 108.4-10.333 112.133c-0.273 3.345-2.793 5.867-5.933 5.867zM89.733 441.067c-2.731 0-4.86-2.099-5.133-5l-9.6-109.133 9.6-105.133c0.239-2.901 2.437-5 5.133-5 2.662 0 4.759 2.099 5.067 5l10.867 105.133-10.867 109.133c-0.341 2.867-2.404 5-5.067 5zM171.133 437.667c-3.686 0-6.694-2.909-6.933-6.8l-8.467-104 8.467-109.333c0.239-3.823 3.247-6.733 6.933-6.733 3.652 0 6.594 2.842 6.867 6.733l9.667 109.333-9.667 104.067c-0.239 3.857-3.214 6.733-6.867 6.733zM49.4 423c-2.185 0-3.959-1.744-4.267-4.133l-10.067-91.933 10.067-89.933c0.273-2.389 2.082-4.133 4.267-4.133 2.15 0 3.891 1.71 4.267 4.133l11.467 89.933-11.467 91.933c-0.341 2.423-2.082 4.133-4.267 4.133zM11.6 387.8c-2.15 0-3.86-1.679-4.133-4l-7.467-56.867 7.467-55.933c0.273-2.355 2.017-4 4.133-4 2.082 0 3.725 1.679 4.067 4l8.867 55.933-8.867 56.867c-0.307 2.321-1.985 4-4.067 4z" />
<glyph unicode="&#xe910;" glyph-name="spotify" d="M512 857.6c-225.28 0-409.6-184.32-409.6-409.6s184.32-409.6 409.6-409.6 409.6 184.32 409.6 409.6-184.32 409.6-409.6 409.6zM673.485 243.2c-7.509 0-11.264 3.755-18.773 7.509-56.32 33.826-127.659 52.565-202.752 52.565-41.301 0-86.357-7.509-123.904-15.019-7.509 0-15.019-3.755-18.773-3.755-15.019 0-26.283 11.264-26.283 26.283s7.509 26.283 22.528 26.283c48.811 11.264 97.655 18.773 150.221 18.773 86.357 0 165.205-22.528 232.789-60.075 7.509-7.509 15.019-11.264 15.019-26.283-7.578-18.773-18.842-26.283-30.071-26.283zM714.752 348.297c-7.509 0-15.019 3.755-22.528 7.509-63.829 41.301-153.975 63.829-251.563 63.829-48.811 0-93.901-7.509-127.659-15.019-7.509-3.755-11.264-3.755-18.773-3.755-18.773 0-30.071 15.019-30.071 30.071 0 18.773 7.509 26.283 26.283 33.826 45.056 11.264 90.146 22.528 153.975 22.528 105.131 0 202.752-26.283 285.389-75.093 11.264-7.509 18.773-18.773 18.773-30.071-3.789-18.773-15.019-33.826-33.826-33.826zM763.563 468.48c-7.509 0-11.264 3.755-22.528 7.509-75.093 41.301-183.979 67.584-289.109 67.584-52.565 0-108.885-7.509-157.73-18.773-7.509 0-11.264-3.755-22.528-3.755-22.528-3.789-37.547 15.019-37.547 37.513s11.264 33.826 26.283 37.547c60.109 15.053 123.938 22.562 191.522 22.562 116.395 0 236.544-26.283 330.445-75.093 11.264-7.509 22.528-18.773 22.528-37.547-3.755-22.528-18.807-37.547-41.335-37.547z" />
<glyph unicode="&#xe911;" glyph-name="tidal" d="M652.501 606.165l-110.336 110.336c-16.683 16.683-43.691 16.683-60.331 0l-110.336-110.336c-16.683-16.683-16.683-43.691 0-60.331l110.336-110.336c16.683-16.683 43.691-16.683 60.331 0l110.336 110.336c16.64 16.64 16.64 43.691 0 60.331zM332.501 606.165l-110.336 110.336c-16.683 16.683-43.691 16.683-60.331 0l-110.336-110.336c-16.683-16.683-16.683-43.691 0-60.331l110.336-110.336c16.683-16.683 43.691-16.683 60.331 0l110.336 110.336c16.64 16.64 16.64 43.691 0 60.331zM972.501 606.165l-110.336 110.336c-16.683 16.683-43.691 16.683-60.331 0l-110.336-110.336c-16.683-16.683-16.683-43.691 0-60.331l110.336-110.336c16.683-16.683 43.691-16.683 60.331 0l110.336 110.336c16.64 16.64 16.64 43.691 0 60.331zM652.501 286.165l-110.336 110.336c-16.683 16.683-43.691 16.683-60.331 0l-110.336-110.336c-16.683-16.683-16.683-43.691 0-60.331l110.336-110.336c16.683-16.683 43.691-16.683 60.331 0l110.336 110.336c16.64 16.64 16.64 43.691 0 60.331z" />
<glyph unicode="&#xe912;" glyph-name="tiktok" d="M819.2 823.467h-614.4c-37.717 0-68.267-30.549-68.267-68.267v-614.4c0-37.717 30.549-68.267 68.267-68.267h614.4c37.717 0 68.267 30.549 68.267 68.267v614.4c0 37.717-30.583 68.267-68.267 68.267zM774.451 500.087c-4.437-0.41-8.909-0.683-13.414-0.683-51.029 0-95.881 26.214-121.993 65.911 0-104.073 0-222.515 0-224.495 0-91.648-74.308-165.922-165.922-165.922-91.614 0.034-165.922 74.342-165.922 165.956 0 91.648 74.308 165.922 165.922 165.922 3.482 0 6.861-0.307 10.24-0.512v-81.783c-3.413 0.41-6.724 1.024-10.24 1.024-46.763 0-84.685-37.922-84.685-84.685s37.888-84.685 84.685-84.685c46.797 0 88.098 36.864 88.098 83.627 0 1.877 0.819 381.269 0.819 381.269h78.131c7.339-69.871 63.761-125.030 134.281-130.082v-90.863z" />
<glyph unicode="&#xe913;" glyph-name="twitter" d="M955.733 723.217c-32.666-14.507-67.755-24.269-104.585-28.672 37.615 22.528 66.458 58.197 80.043 100.727-35.157-20.855-74.138-36.011-115.644-44.203-33.212 35.396-80.521 57.515-132.881 57.515-100.557 0-182.067-81.545-182.067-182.067 0-14.268 1.638-28.194 4.71-41.472-151.313 7.578-285.457 80.077-375.296 190.259-15.633-26.897-24.61-58.163-24.61-91.58 0-63.147 32.119-118.886 80.964-151.518-29.833 0.956-57.924 9.148-82.466 22.767 0-0.785 0-1.502 0-2.287 0-88.235 62.737-161.826 146.057-178.517-15.258-4.164-31.369-6.383-47.991-6.383-11.708 0-23.142 1.161-34.236 3.243 23.177-72.329 90.419-124.996 170.086-126.464-62.293-48.845-140.8-77.961-226.133-77.961-14.677 0-29.184 0.853-43.452 2.56 80.589-51.644 176.265-81.783 279.108-81.783 334.916 0 518.007 277.436 518.007 518.042 0 7.885-0.171 15.735-0.512 23.552 35.601 25.702 66.492 57.754 90.897 94.242z" />
<glyph unicode="&#xe914;" glyph-name="vk" d="M512 857.6c-226.202 0-409.6-183.398-409.6-409.6s183.398-409.6 409.6-409.6 409.6 183.398 409.6 409.6c0 226.202-183.398 409.6-409.6 409.6zM729.122 312.593l-63.761-0.887c0 0-13.756-2.697-31.744 9.728-23.859 16.384-46.353 59.017-63.898 53.487-17.783-5.666-17.237-44.032-17.237-44.032s0.137-6.758-3.925-11.162c-4.403-4.745-13.039-4.267-13.039-4.267h-28.57c0 0-63.010-5.222-118.545 52.668-60.484 63.113-113.937 187.665-113.937 187.665s-3.14 7.851 0.205 11.878c3.789 4.437 13.995 4.574 13.995 4.574l68.267 0.341c0 0 6.417-1.126 11.059-4.54 3.789-2.799 5.939-8.055 5.939-8.055s11.025-27.955 25.668-53.282c28.535-49.357 41.779-60.177 51.473-54.886 14.131 7.714 9.899 69.769 9.899 69.769s0.273 22.528-7.1 32.563c-5.734 7.817-16.521 10.138-21.231 10.718-3.857 0.512 2.423 9.455 10.615 13.483 12.288 6.007 33.997 6.349 59.631 6.11 19.968-0.205 25.737-1.434 33.519-3.345 23.552-5.7 15.565-27.682 15.565-80.418 0-16.896-3.038-40.653 9.114-48.469 5.257-3.379 18.057-0.512 49.971 53.897 15.189 25.805 26.556 56.115 26.556 56.115s2.492 5.393 6.349 7.714c3.959 2.389 9.284 1.638 9.284 1.638l71.851 0.444c0 0 21.572 2.594 25.088-7.202 3.686-10.24-8.055-34.167-37.41-73.318-48.196-64.307-53.555-58.334-13.517-95.539 38.229-35.533 46.114-52.804 47.445-54.989 15.804-26.317-17.579-28.399-17.579-28.399z" />
<glyph unicode="&#xe915;" glyph-name="youtube-music" d="M512 898.56c-248.832 0-450.56-201.728-450.56-450.56s201.728-450.56 450.56-450.56c248.832 0 450.56 201.728 450.56 450.56s-201.728 450.56-450.56 450.56zM512 734.72c158.106 0 286.72-128.614 286.72-286.72s-128.614-286.72-286.72-286.72c-158.106 0-286.72 128.614-286.72 286.72s128.614 286.72 286.72 286.72zM512 693.76c-135.516 0-245.76-110.244-245.76-245.76s110.244-245.76 245.76-245.76c135.516 0 245.76 110.244 245.76 245.76s-110.244 245.76-245.76 245.76zM450.96 581.080c3.574-0.067 7.116-1.035 10.28-2.96l184.32-112.64c6.062-3.707 9.8-10.332 9.8-17.48s-3.717-13.753-9.8-17.48l-184.32-112.64c-3.277-1.987-6.973-3-10.68-3-3.441 0-6.887 0.899-10 2.64-6.472 3.625-10.48 10.447-10.48 17.84v225.28c0 7.393 4.008 14.215 10.48 17.84 3.246 1.802 6.826 2.667 10.4 2.6z" />
<glyph unicode="&#xe916;" glyph-name="youtube" d="M512 823.467c-142.882 0-328.333-35.8-328.333-35.8l-0.467-0.533c-65.076-10.408-114.933-66.327-114.933-134.333v-409.667c0.137-67.786 49.651-123.967 114.481-134.495l0.786-0.105 0.133-0.2c0 0 185.451-35.867 328.333-35.867s328.333 35.867 328.333 35.867l0.067 0.067c65.689 10.611 115.259 66.872 115.333 134.725v409.675c-0.103 67.814-49.629 124.030-114.48 134.561l-0.786 0.105-0.133 0.2c0 0-185.451 35.8-328.333 35.8zM409.6 605.067l273.067-157.067-273.067-157.067v314.133z" />
<glyph unicode="&#xe917;" glyph-name="itunes" d="M512 908.8c-254.484 0-460.8-206.316-460.8-460.8s206.316-460.8 460.8-460.8 460.8 206.316 460.8 460.8-206.316 460.8-460.8 460.8zM512 79.36c-203.581 0-368.64 165.059-368.64 368.64s165.059 368.64 368.64 368.64 368.64-165.059 368.64-368.64-165.059-368.64-368.64-368.64zM680.755 324.516c2.959-39.199-26.46-74.885-65.761-79.78-39.24-4.864-73.564 22.938-76.503 62.136-3 39.148 26.522 74.885 65.761 79.739 2.656 0.358 5.726 0.563 8.844 0.563 9.396 0 18.358-1.858 26.539-5.228l-0.464 0.169v192.461l-184.32-34.284v-240.435h-0.358c0.082-0.676 0.256-1.3 0.256-1.976 2.98-39.199-26.46-74.844-65.7-79.739-39.322-4.864-73.523 22.948-76.503 62.095-3.021 39.199 26.419 74.916 65.7 79.739 2.673 0.368 5.761 0.578 8.899 0.578 9.382 0 18.325-1.88 26.474-5.283l-0.454 0.168v277.197l267.756 45.763-0.102-1.219v-350.72h-0.358c0.123-0.686 0.246-1.26 0.297-1.946z" />
<glyph unicode="&#xe918;" glyph-name="joox" d="M512 693.333c-135.494 0-245.333-109.839-245.333-245.333 0-135.492 109.839-245.333 245.333-245.333 135.492 0 245.333 109.841 245.333 245.333 0 135.494-109.841 245.333-245.333 245.333zM512 522.667c-41.237 0-74.667-33.429-74.667-74.667s33.429-74.667 74.667-74.667c41.237 0 74.667 33.429 74.667 74.667s-33.429 74.667-74.667 74.667zM512 906.667c-253.315 0-458.667-205.352-458.667-458.667s205.352-458.667 458.667-458.667c110.81 0 212.501 39.33 291.772 104.755l102.106-26.398c10.974-2.833 22.626 0.341 30.639 8.354s11.191 19.665 8.354 30.639l-31.027 120.026c36.22 65.638 56.823 141.103 56.823 221.291 0 253.315-205.35 458.667-458.667 458.667zM117.333 448c0 217.968 176.698 394.667 394.667 394.667 217.967 0 394.667-176.698 394.667-394.667 0-73.233-19.917-141.717-54.609-200.439-4.326-7.317-5.559-16.055-3.43-24.286l20.685-80.026-65.677 16.977c-10.334 2.671-21.316 0.017-29.291-7.083-69.751-62.11-161.609-99.81-262.345-99.81-217.968 0-394.667 176.7-394.667 394.667z" />
<glyph unicode="&#xe919;" glyph-name="play" d="M341.333 669.013v-442.027c0-33.707 37.12-54.187 65.707-35.84l347.307 221.013c26.453 16.64 26.453 55.040 0 72.107l-347.307 220.587c-28.587 18.347-65.707-2.133-65.707-35.84z" />
<glyph unicode="&#xe91a;" glyph-name="resso" d="M347.244 379.371l141.345-94.080-57.105-38.609c-42.493-28.736-100.817 1.587-100.817 55.313v68.497c0 8.512 9.488 13.598 16.577 8.879zM53.333 661.333c0 135.494 109.839 245.333 245.333 245.333h426.667c135.492 0 245.333-109.839 245.333-245.333v-426.667c0-135.492-109.841-245.333-245.333-245.333h-426.667c-135.494 0-245.333 109.841-245.333 245.333v426.667zM463.676 716.22c-86.59 54.367-197.009-9.316-197.009-110.716v-93.901c0-17.673 14.327-32 32-32s32 14.327 32 32v93.901c0 52.701 56.382 83.259 98.978 56.514l232.747-146.135c40.422-25.378 41.451-85.047 1.843-111.829l-118.349-80.021-163.181 108.617c-49.623 33.028-116.038-2.547-116.038-62.157v-68.497c0-103.36 114.291-166.737 200.666-108.331l78.835 53.303 122.607-81.604c14.711-9.796 34.577-5.807 44.369 8.905 9.792 14.716 5.803 34.577-8.909 44.369l-100.77 67.072 96.619 65.327c77.867 52.655 75.968 169.054-3.657 219.050l-232.751 146.134z" />
<glyph unicode="&#xe91b;" glyph-name="whatsapp" horiz-adv-x="1019" d="M870.93 811.19c-95.83 95.91-223.275 148.756-359.055 148.81-279.77 0-507.469-227.611-507.581-507.383-0.037-89.43 23.336-176.727 67.752-253.674l-72.008-262.943 269.076 70.559c74.135-40.422 157.606-61.726 242.558-61.761h0.209c279.741 0 507.461 227.64 507.574 507.414 0.054 135.582-52.693 263.069-148.525 358.979zM511.881 30.499h-0.173c-75.7 0.029-149.95 20.359-214.722 58.785l-15.406 9.141-159.671-41.872 42.62 155.63-10.032 15.955c-42.23 67.149-64.536 144.761-64.502 224.448 0.093 232.535 189.348 421.716 422.055 421.716 112.682-0.043 218.608-43.969 298.259-123.686s123.493-185.68 123.45-298.37c-0.097-232.552-189.35-421.746-421.876-421.746zM743.289 346.361c-12.683 6.346-75.037 37.019-86.663 41.25s-20.078 6.346-28.535-6.347c-8.454-12.692-32.759-41.25-40.16-49.711-7.396-8.462-14.794-9.521-27.478-3.174-12.682 6.346-53.547 19.733-101.99 62.928-37.701 33.616-63.156 75.139-70.554 87.831s-0.786 19.556 5.562 25.876c5.705 5.681 12.682 14.808 19.024 22.213 6.34 7.403 8.454 12.692 12.681 21.152 4.228 8.462 2.115 15.867-1.056 22.213s-28.534 68.751-39.104 94.136c-10.294 24.723-20.75 21.378-28.535 21.765-7.389 0.368-15.853 0.446-24.307 0.446s-22.195-3.174-33.821-15.865c-11.625-12.693-44.387-43.367-44.387-105.771s45.444-122.692 51.786-131.154c6.34-8.462 89.43-136.526 216.654-191.444 30.259-13.062 53.883-20.862 72.301-26.709 30.383-9.647 58.031-8.285 79.884-5.022 24.366 3.639 75.035 30.672 85.605 60.288 10.569 29.616 10.569 55.001 7.398 60.289-3.169 5.288-11.625 8.462-24.307 14.809z" />
</font>
</defs>
</svg>
